# xmcd CD database file
#
# Track frame offsets:
#	150
#	56186
#	113490
#	140962
#	214981
#	249712
#	263058
#
# Disc length: 4294 seconds
#
# Revision: 0
# Processed by: cddbd v1.5.2PL0 Copyright (c) Steve Scherf et al.
# Submitted via: CDex 1.70beta2
#
DISCID=6f10c407
DTITLE=Joey Sellers' Jazz Aggregation - El Payaso
DYEAR=2005
DGENRE=Jazz
TTITLE0=El Payaso
TTITLE1=Corrugated Beak
TTITLE2=Rain As Grace
TTITLE3=Odd Children
TTITLE4=Carly B.
TTITLE5=Blame Baker
TTITLE6=Val
EXTD=YEAR: 2005
EXTT0=
EXTT1=
EXTT2=
EXTT3=
EXTT4=
EXTT5=
EXTT6=
PLAYORDER=
